<svg height="25.883" viewBox="0 0 100.297 25.883" width="100.297" xmlns="http://www.w3.org/2000/svg"><path d="M237.4 175.209V183.3a4.853 4.853 0 1 1 -9.706 0v-8.088h-3.236V183.3a8.089 8.089 0 1 0 16.177 0v-8.088Z" fill="#da001b" transform="matrix(1 0 0 1 -224.457 -170.356)"/><path d="M258.915 175.209a8.088 8.088 0 0 0 -8.088 8.088v12.942h3.236V183.3a4.853 4.853 0 1 1 4.853 4.853v3.236a8.089 8.089 0 1 0 0-16.177" fill="#da001b" transform="matrix(1 0 0 1 -233.032 -170.356)"/><g fill="#030404"><path d="M285.285 176.105V172.87h-4.853v-4.853H277.2v12.942a8.088 8.088 0 0 0 8.088 8.088h0v-3.236a4.853 4.853 0 0 1 -4.853-4.853v-4.853Z" transform="matrix(1 0 0 1 -241.607 -168.017)"/><path d="M46.914 4.853H50.149V21.03H46.914Z"/><path d="M46.914.001H50.149V3.236H46.914Z"/><path d="M324.6 175.209a8.075 8.075 0 0 0 -6.47 3.235 8.089 8.089 0 0 0 -14.56 4.853v8.089H306.8V183.3a4.853 4.853 0 1 1 9.706 0v8.089h3.236V183.3a4.853 4.853 0 1 1 9.707 0v8.089h3.236V183.3a8.087 8.087 0 0 0 -8.088-8.088" transform="matrix(1 0 0 1 -250.182 -170.356)"/><path d="M357.2 175.209a8.089 8.089 0 1 0 0 16.177v-3.236a4.853 4.853 0 1 1 4.571-6.471H357.2v3.236h7.926a8.1 8.1 0 0 0 -7.926-9.706" transform="matrix(1 0 0 1 -264.994 -170.356)"/></g></svg>